<svg xmlns="http://www.w3.org/2000/svg" viewBox="0 0 256 256">
  <rect width="256" height="256" rx="56" fill="#ffd6ec"/>
  <g stroke="#2b1d2e" stroke-width="10" stroke-linejoin="round">
    <g fill="#5fb8ff"><rect x="44" y="52" width="22" height="90" rx="11"/><rect x="70" y="36" width="22" height="106" rx="11"/><rect x="96" y="40" width="22" height="102" rx="11"/><rect x="36" y="96" width="96" height="100" rx="30"/></g>
    <g fill="#ff7cc0"><rect x="138" y="40" width="22" height="102" rx="11"/><rect x="164" y="36" width="22" height="106" rx="11"/><rect x="190" y="52" width="22" height="90" rx="11"/><rect x="124" y="96" width="96" height="100" rx="30"/></g>
  </g>
  <g fill="#2b1d2e"><circle cx="70" cy="146" r="6"/><circle cx="100" cy="146" r="6"/><circle cx="156" cy="146" r="6"/><circle cx="186" cy="146" r="6"/></g>
  <g fill="none" stroke="#2b1d2e" stroke-width="6" stroke-linecap="round"><path d="M74 166q11 10 22 0"/><path d="M160 166q11 10 22 0"/></g>
</svg>
